<svg width="32" height="32" viewBox="0 0 32 32" fill="none" xmlns="http://www.w3.org/2000/svg">
<path d="M31.7935 4.0106C31.2375 3.29993 30.2655 3.86926 29.8375 4.11726C26.7922 5.91193 26.3429 9.07193 25.2815 10.8866C24.4469 12.3399 23.0789 13.4066 21.8415 13.4893C20.9269 13.5546 19.9349 13.3773 18.9509 12.9493C16.5415 11.9079 15.2442 10.5599 14.9282 10.3226C14.2789 9.82926 9.28819 4.96926 5.22152 4.7706C5.22152 4.7706 4.72552 3.7706 4.60152 3.75326C4.30552 3.71993 4.00152 4.3546 3.78019 4.42126C3.58019 4.49193 3.22952 3.7386 3.02685 3.77193C2.82285 3.7986 2.62419 4.55326 2.22685 4.94126C1.93352 5.22526 1.57885 5.20793 1.37752 5.5586C1.30819 5.6866 1.33219 5.91193 1.25352 6.1186C1.08419 6.54526 0.518854 6.5906 0.513521 7.04793C0.513521 7.55593 0.989521 7.65326 1.40552 8.00793C1.73619 8.2906 1.75885 8.4906 2.14419 8.6226C2.48819 8.73993 2.98685 8.37326 3.42952 8.50526C3.79885 8.61326 4.15352 8.69193 4.23219 9.06926C4.30419 9.4106 4.23219 9.9466 3.77885 9.8866C3.62952 9.8666 2.98152 9.6546 2.18152 9.73993C1.21485 9.8426 0.110854 10.1519 0.00285447 11.2199C-0.0518122 11.8159 0.688188 12.5133 1.40952 12.3746C1.90419 12.2799 1.67085 11.6999 1.94152 11.4199C2.29752 11.0599 4.30419 12.6786 6.17085 12.6786C6.96152 12.6786 7.54552 12.4786 8.12685 11.8719C8.18019 11.8333 8.25085 11.7359 8.33352 11.7253C8.42652 11.7485 8.51458 11.7882 8.59352 11.8426C10.1015 13.0386 11.2389 15.4426 16.7669 15.4706C17.5429 15.4799 18.4335 15.8426 19.1615 16.5066C19.8015 17.0839 20.1802 18.0066 20.5442 18.9399C21.1015 20.3439 22.0922 21.6986 23.6002 23.2106C23.6802 23.3013 24.9202 24.2506 25.0135 24.3213C25.0295 24.3346 25.1255 24.5439 25.0842 24.6613C25.0575 25.5813 24.9202 28.2213 26.9042 28.3319C27.3922 28.3586 27.2709 28.0239 27.2709 27.7853C27.2642 27.3306 27.1842 26.8719 27.4215 26.3986C27.7589 25.7613 26.7202 25.4533 26.7429 24.0573C26.7682 23.0119 25.8829 23.1893 25.4309 22.3906C25.1775 21.9333 24.9402 21.6813 24.9642 21.1293C25.0615 17.9559 24.2749 15.8653 23.8909 15.3599C23.5882 14.9679 23.3269 14.8226 23.6149 14.6399C25.2682 13.5533 25.6482 12.5413 25.6482 12.5413C26.5282 10.4866 27.3229 8.6146 28.4149 7.78126C28.6362 7.62126 29.2002 7.1946 29.5509 7.0346C30.5682 6.55193 31.1149 6.26393 31.4015 5.98393C31.8762 5.5346 32.2482 4.57993 31.7935 4.0106Z" fill="black"/>
</svg>
